# xmcd CD database file
#
# Track frame offsets:
#	150
#	13530
#	32503
#	43616
#	59750
#	77087
#	91268
#	106441
#	120111
#	133226
#	147201
#	159443
#	175242
#	190109
#	203883
#	215106
#	229183
#	246699
#	260894
#
# Disc length: 3678 seconds
#
# Revision: 0
# Processed by: cddbd v1.5.2PL0 Copyright (c) Steve Scherf et al.
# Submitted via: CDex 1.50
#
DISCID=150e5c13
DTITLE=Various Artist - 016 - Tom Astor - Take it Easy - Die Collection - CD - 02
DYEAR=2008
DGENRE=Country
TTITLE0=Hungrige Herzen
TTITLE1=Ich kein Dichter , kein Poet
TTITLE2=Manchmal will sie nur einfach Frau sein 
TTITLE3=Ja , ich bin einfach so wie du unterwegs
TTITLE4=Worauf willst du noch warten 
TTITLE5=Ehrlichkeit
TTITLE6=Und ich bin dein Freund
TTITLE7=Wer hat ein Herz , das nie bricht 
TTITLE8=Nutz die zeit
TTITLE9=Ich bin verrückt nach dir
TTITLE10=Radwechsel
TTITLE11=Bist du die Frau
TTITLE12=Renovier' deine Seele
TTITLE13=Nimm dir Zeit
TTITLE14=Ist lange her
TTITLE15=Zusammen gewonnen , zusammen verlor'n
TTITLE16=Frau'n
TTITLE17=Mit dem Truck durch texas fahr'n
TTITLE18=Ich bin wieder frei
EXTD=YEAR: 2008
EXTT0=
EXTT1=
EXTT2=
EXTT3=
EXTT4=
EXTT5=
EXTT6=
EXTT7=
EXTT8=
EXTT9=
EXTT10=
EXTT11=
EXTT12=
EXTT13=
EXTT14=
EXTT15=
EXTT16=
EXTT17=
EXTT18=
PLAYORDER=
